PathFileType	4	(X/Y/Z)	 s03c0403.trc
DataRate	CameraRate	NumFrames	NumMarkers	Units	OrigDataRate	OrigDataStartFrame	OrigNumFrames
200	200	5	52	mm	200	1251	2000
Frame#	Time	racr			lacr			c7			jug			rlel			rdr			llel			ldr			s2			lic			ric			lasi			rasi			rpsi			lpsi			rgt			lgt			rth1			rth2			rth3			rth4			rlfc			rmfc			rsh1			rsh2			rsh3			rsh4			rlmal			rmmal			rcal			rtoe			rmt5			rmt1			lth1			lth2			lth4			lth3			llfc			lmfc			lsh1			lsh2			lsh3			lsh4			llmal			lmmal			lcal			ltoe			lmt1			lmt5			SBIKE			LBIKE			RBIKE			
		X1	Y1	Z1	X2	Y2	Z2	X3	Y3	Z3	X4	Y4	Z4	X5	Y5	Z5	X6	Y6	Z6	X7	Y7	Z7	X8	Y8	Z8	X9	Y9	Z9	X10	Y10	Z10	X11	Y11	Z11	X12	Y12	Z12	X13	Y13	Z13	X14	Y14	Z14	X15	Y15	Z15	X16	Y16	Z16	X17	Y17	Z17	X18	Y18	Z18	X19	Y19	Z19	X20	Y20	Z20	X21	Y21	Z21	X22	Y22	Z22	X23	Y23	Z23	X24	Y24	Z24	X25	Y25	Z25	X26	Y26	Z26	X27	Y27	Z27	X28	Y28	Z28	X29	Y29	Z29	X30	Y30	Z30	X31	Y31	Z31	X32	Y32	Z32	X33	Y33	Z33	X34	Y34	Z34	X35	Y35	Z35	X36	Y36	Z36	X37	Y37	Z37	X38	Y38	Z38	X39	Y39	Z39	X40	Y40	Z40	X41	Y41	Z41	X42	Y42	Z42	X43	Y43	Z43	X44	Y44	Z44	X45	Y45	Z45	X46	Y46	Z46	X47	Y47	Z47	X48	Y48	Z48	X49	Y49	Z49	X50	Y50	Z50	X51	Y51	Z51	X52	Y52	Z52	
1251	6.2550	841.700787	1345.225138	-32.562774	810.038664	1382.416507	-367.540924	799.188723	1469.538803	-183.329836	749.260360	1299.729529	-203.876724	631.137680	1190.095272	127.416423	745.436837	980.223799	6.131334	657.051141	1220.579272	-552.445763	744.131994	979.679019	-445.707757	224.744041	1305.574843	-174.425344	397.250357	1323.659375	-353.564469	397.104468	1284.568364	10.451516	403.804933	1244.882398	-316.685144	412.955506	1215.908270	-40.522777	261.898193	1346.278695	-113.035457	264.577538	1355.446010	-194.870415	317.971684	1180.702319	11.166806	339.441042	1225.858101	-380.961168	360.079764	1022.703365	15.529924	408.660504	948.840539	7.579062	416.993724	865.238251	-8.883323	442.830020	962.013853	1.962198	445.482012	744.649222	-48.127650	454.157799	734.609084	-159.108041	387.148455	586.336910	-23.831901	379.974314	498.057965	-40.424448	329.388785	425.864265	-43.124058	407.262701	491.819749	-67.487792	271.462657	308.789223	-66.201313	295.531183	315.795438	-146.903316	200.913559	291.564209	-96.503307	489.841187	171.656937	-112.313824	375.568610	200.976935	-36.798776	401.349975	210.874697	-150.926640	426.099451	1102.144650	-414.308948	489.982713	1043.935778	-421.871233	519.266766	1059.997368	-405.964922	515.871161	959.399493	-433.495987	575.968901	844.998615	-431.998465	566.207396	815.241317	-308.942757	422.699501	758.712514	-454.559124	365.133338	698.888091	-436.212685	278.637461	672.446627	-429.838735	383.280009	673.062496	-414.560060	166.297923	613.945008	-411.084289	199.901046	599.631760	-324.531908	94.820833	636.256075	-363.462898	257.389819	374.570991	-346.448269	200.199589	450.254721	-307.075117	174.717317	456.507751	-424.101461	-210.405138	947.560424	-225.861383	-4.413915	84.441192	-432.757969	-8.742550	80.816275	-32.372501	
1252	6.2600	842.019321	1345.955717	-34.316525	809.326935	1383.301406	-369.618413	798.800062	1470.218807	-185.210817	749.154946	1300.274771	-205.495893	632.293454	1190.554145	126.403677	745.986272	980.147503	5.827986	656.430614	1220.131839	-553.730774	744.211341	979.691801	-446.248634	225.613574	1303.098321	-170.394353	396.153024	1323.627246	-353.439884	398.794584	1283.185287	10.313258	404.058193	1244.820523	-316.463096	415.274997	1214.688520	-40.952502	262.803790	1343.818004	-114.631900	264.877813	1353.039469	-197.700211	318.625698	1178.397879	10.908197	340.337298	1226.470899	-380.602810	357.670903	1020.445781	15.507864	404.542978	945.484590	7.484107	410.909571	861.696751	-8.973354	438.896888	957.897876	1.870316	436.994387	740.660570	-48.432162	445.299791	729.735461	-159.087639	379.677562	582.435172	-23.758368	373.321462	494.055380	-40.055868	323.379629	421.331556	-42.498797	400.570583	487.941126	-67.127901	266.165750	303.797367	-65.854124	290.191279	310.872889	-146.086594	195.817017	288.636242	-95.802510	481.809599	162.105131	-112.803715	368.509311	193.762365	-36.815550	394.077439	203.320384	-151.031143	429.753681	1105.348321	-414.001654	494.322585	1048.258520	-422.273490	524.292633	1064.399942	-404.107300	522.079570	964.279412	-433.750975	582.511279	849.645538	-432.640161	573.414757	819.435446	-309.072999	428.884167	764.743970	-454.693518	370.690650	705.169253	-435.763595	283.963080	679.524500	-429.004197	388.746839	679.197725	-414.253569	171.477082	621.355777	-410.351374	205.187002	607.528239	-323.750429	98.985472	642.264621	-362.932971	266.642344	383.211714	-345.553220	207.665486	458.032389	-306.884638	182.860736	464.178070	-424.215983	-210.483078	947.549910	-225.983187	-4.410405	84.422252	-432.768761	-8.759119	80.803592	-32.386770	
1253	6.2650	842.437035	1346.633283	-36.142677	808.587103	1384.126791	-371.793176	798.513501	1470.894888	-187.257633	749.029245	1300.844790	-207.214528	633.519349	1191.220109	125.311113	746.671269	980.137452	5.691482	655.755342	1219.668346	-555.158496	744.345059	979.747393	-446.960909	227.115446	1301.254536	-168.304108	395.144186	1323.471302	-351.694096	400.725489	1281.940964	10.191579	404.261806	1244.880823	-316.401131	417.374377	1213.494978	-41.364749	263.502753	1341.284061	-117.844833	264.867045	1351.000773	-197.171163	319.461495	1176.335591	10.779328	341.229964	1227.246252	-380.251956	355.340509	1018.431728	15.448474	400.504954	942.382631	7.432073	404.942085	858.489017	-9.010536	435.171851	954.052955	1.624525	428.481551	737.245370	-48.594163	436.021434	725.224466	-159.349750	372.308179	578.951978	-23.830371	366.298281	490.613518	-39.523813	316.881196	417.476364	-41.866980	393.676227	484.545325	-66.518014	260.646172	299.446379	-65.531398	284.573686	306.404346	-145.093625	190.545946	286.246606	-94.796612	473.380280	152.936884	-113.402289	361.197519	187.077330	-36.819479	386.383822	196.432445	-151.133532	433.304233	1108.620680	-413.692181	499.251454	1052.591158	-420.990893	528.401629	1068.899726	-403.122363	528.053174	968.992584	-433.531492	589.146667	854.199056	-432.932451	580.551824	823.955441	-309.019272	435.080063	770.334985	-454.265983	376.497193	711.133168	-435.247502	289.583132	686.089142	-428.112591	394.429103	684.952386	-413.870378	177.161346	628.140201	-409.576028	210.817675	614.748523	-323.148559	103.757414	647.592419	-362.429165	276.281937	392.092739	-346.125102	215.840100	465.417370	-306.752832	191.310511	471.451063	-424.092915	-210.590177	947.522818	-226.060194	-4.445387	84.413894	-432.791882	-8.766278	80.811496	-32.409048	
1254	6.2700	842.932636	1347.437639	-38.101584	807.837508	1385.117759	-374.470686	798.253567	1471.518667	-189.436108	749.054221	1301.317025	-208.974645	634.870420	1192.027614	124.156396	747.334784	980.093468	5.693993	655.066199	1219.368249	-556.835959	744.470123	979.915744	-447.740757	227.792000	1299.308770	-167.354061	393.868550	1323.550401	-351.443873	402.657949	1280.764532	10.115076	404.384347	1245.045654	-316.462086	419.324336	1212.606193	-41.798191	264.583839	1339.381314	-116.900140	264.871137	1350.969349	-193.044114	320.312463	1174.375442	10.576407	342.038959	1228.095834	-379.843103	353.060816	1016.581991	15.378176	396.578328	939.615135	7.414686	399.127691	855.586803	-8.983408	431.418579	950.478465	1.482861	419.696355	734.260196	-48.528073	426.797582	721.259935	-159.541151	364.419133	576.086627	-23.502567	358.998366	487.597664	-38.913013	310.084593	414.067752	-41.151695	386.542177	481.599120	-65.798853	254.937871	295.828862	-64.683304	278.622915	302.766926	-143.962257	185.020625	284.473894	-93.697483	464.459815	144.757637	-113.212322	353.405834	180.892895	-36.762571	378.660354	190.389988	-150.840617	436.567082	1111.847828	-413.472728	503.382630	1057.185755	-421.696352	532.054646	1073.550175	-402.650056	533.425005	973.724155	-433.625272	595.626051	858.775212	-433.177931	587.503716	828.785607	-308.855930	441.319862	775.711909	-453.752109	382.599752	716.767059	-434.612173	295.411005	692.227904	-427.564169	400.470702	690.426547	-413.346834	183.425977	634.354929	-408.864065	216.914114	621.236390	-322.137896	109.075616	652.310382	-361.876531	286.166685	399.693373	-345.643071	224.399677	472.178598	-306.594671	200.010672	477.985282	-423.811150	-210.695043	947.496417	-226.125146	-4.458963	84.374214	-432.787529	-8.784221	80.816252	-32.426418	
1255	6.2750	843.490466	1348.157267	-40.192501	807.160384	1385.883958	-376.756861	798.028666	1472.113987	-191.678401	749.087100	1301.775833	-210.848836	636.216766	1192.993176	122.911003	748.083866	980.040848	5.850413	654.468851	1219.119834	-558.689067	744.594857	980.121591	-448.587189	227.901454	1299.486711	-165.147569	392.518633	1323.709037	-351.251286	404.737490	1279.624440	10.019719	404.476834	1245.290448	-316.618872	421.173663	1211.760519	-42.364146	265.588900	1337.761307	-115.846344	265.129650	1348.854945	-195.677758	321.293102	1172.550163	10.316125	342.724662	1229.061007	-379.409153	350.861071	1014.989355	15.287344	392.776503	937.077885	7.442808	393.569549	852.961449	-8.887829	427.771411	947.266205	1.413109	411.808365	731.407280	-48.734800	417.232620	718.105774	-160.065135	356.383836	573.558180	-23.077928	351.613266	484.981176	-38.154914	303.082629	411.235802	-40.351845	379.318857	479.054884	-64.795369	249.188463	292.581449	-63.764599	272.504140	299.443121	-142.801294	179.260285	283.149111	-92.489963	455.047775	136.669037	-113.703340	345.301227	175.177059	-36.638139	369.946410	184.390171	-151.109996	439.331981	1115.004698	-414.014219	506.681860	1061.245698	-422.079005	535.511551	1077.820869	-402.351588	538.232090	978.165500	-433.809119	601.825871	863.472416	-433.384024	594.244929	833.755976	-308.764613	447.683482	780.895289	-453.138691	388.969869	721.945990	-433.945859	301.763693	697.551731	-426.645116	406.835547	695.602843	-412.792777	189.774323	639.644917	-408.074501	223.609372	627.093477	-320.504689	114.926343	656.370926	-361.225229	297.272154	407.710763	-346.925333	233.299158	478.202717	-306.455977	208.910292	483.874197	-423.308315	-210.784152	947.461674	-226.184040	-4.489246	84.366412	-432.792732	-8.812501	80.834074	-32.439929	
